<svg xmlns="http://www.w3.org/2000/svg" width="24" height="24" viewBox="0 0 24 24">
  <title>activities</title>
  <g>
    <path d="M.137,4.533H3.072V19.467H.137Zm7.237,2.82a3.548,3.548,0,0,0-1.367-.245,2.928,2.928,0,0,0-2.165.77,2.887,2.887,0,0,0-.77,2.136l-.3-2.877A5.489,5.489,0,0,1,4.554,5.058a4.216,4.216,0,0,1,2.417-.741,5.467,5.467,0,0,1,1.849.295,4.143,4.143,0,0,1,1.446.87L8.353,8.072A2.465,2.465,0,0,0,7.374,7.353Z" fill="#383838"/>
    <path d="M14.964,18.921A5.165,5.165,0,0,1,12.755,16.7a7.477,7.477,0,0,1-.762-3.511v-2.46a7.325,7.325,0,0,1,.762-3.468,5.142,5.142,0,0,1,2.209-2.194,7.46,7.46,0,0,1,3.489-.755,8.31,8.31,0,0,1,2.194.28A6.548,6.548,0,0,1,22.5,5.41a5.047,5.047,0,0,1,1.367,1.3L21.748,8.6A4.4,4.4,0,0,0,20.266,7.5a4.208,4.208,0,0,0-1.77-.389,3.53,3.53,0,0,0-2.633.95,3.653,3.653,0,0,0-.935,2.676v2.46a3.782,3.782,0,0,0,.928,2.734,3.493,3.493,0,0,0,2.64.964,3.994,3.994,0,0,0,1.784-.417,4.349,4.349,0,0,0,1.468-1.18l2.115,2.043a5.242,5.242,0,0,1-1.381,1.273,6.508,6.508,0,0,1-1.849.8,8.472,8.472,0,0,1-2.18.273A7.4,7.4,0,0,1,14.964,18.921Z" fill="#383838"/>
  </g>
</svg>
